<svg xmlns="http://www.w3.org/2000/svg" width="37.468" height="26.966" viewBox="0 0 37.468 26.966">
  <g id="Group_9" data-name="Group 9" transform="translate(-138 -33)">
    <g id="opencart" transform="translate(156.734 46.483)">
      <path id="opencart-2" data-name="opencart" d="M24.782,24.3a2.676,2.676,0,1,1-2.67-2.681A2.661,2.661,0,0,1,24.782,24.3ZM9.918,21.615A2.676,2.676,0,1,0,12.6,24.3,2.675,2.675,0,0,0,9.918,21.615ZM27,5.808C9.3,5.808,4.795,5.058,0,0,2.014,3.027,3.12,8.717,21.843,8.442c19.513-.293,7.611,5.041,4.145,11.059C36.918,9.742,44.687,5.808,27,5.808Z" transform="translate(-18.734 -13.483)"/>
    </g>
  </g>
</svg>
