<svg xmlns="http://www.w3.org/2000/svg" width="20" height="20" viewBox="0 0 20 20">
  <g id="plus-circle" transform="translate(10 10)">
    <path id="plus-circle-2" data-name="plus-circle" d="M10,0A10,10,0,1,0,20,10,10,10,0,0,0,10,0Zm5.806,11.129a.485.485,0,0,1-.484.484h-3.71v3.71a.485.485,0,0,1-.484.484H8.871a.485.485,0,0,1-.484-.484v-3.71H4.677a.485.485,0,0,1-.484-.484V8.871a.485.485,0,0,1,.484-.484h3.71V4.677a.485.485,0,0,1,.484-.484h2.258a.485.485,0,0,1,.484.484v3.71h3.71a.485.485,0,0,1,.484.484Z" transform="translate(-10 -10)" fill="#00848f"/>
  </g>
</svg>
